<svg xmlns="http://www.w3.org/2000/svg" viewBox="0 0 900 680" role="img" aria-labelledby="title desc">
  <title id="title">Pink lavender flowers placeholder</title>
  <desc id="desc">Pastel flowers for a romantic scrapbook memory.</desc>
  <defs>
    <linearGradient id="bg" x1="0" x2="1" y1="0" y2="1">
      <stop stop-color="#fff8f2"/>
      <stop offset=".55" stop-color="#f7dfe9"/>
      <stop offset="1" stop-color="#e7e1f6"/>
    </linearGradient>
  </defs>
  <rect width="900" height="680" rx="58" fill="url(#bg)"/>
  <g opacity=".82">
    <path d="M456 588C420 438 394 286 430 136" stroke="#8c9cab" stroke-width="10" stroke-linecap="round"/>
    <path d="M512 588c20-154 68-268 178-386" stroke="#b7c5b0" stroke-width="10" stroke-linecap="round"/>
    <path d="M394 590C320 450 250 338 144 236" stroke="#b7c5b0" stroke-width="10" stroke-linecap="round"/>
  </g>
  <g fill="#d69ab0" opacity=".72">
    <circle cx="420" cy="158" r="42"/><circle cx="466" cy="164" r="42"/><circle cx="444" cy="122" r="42"/><circle cx="444" cy="188" r="34"/>
  </g>
  <g fill="#c8bfe4" opacity=".76">
    <circle cx="698" cy="204" r="38"/><circle cx="734" cy="232" r="38"/><circle cx="682" cy="250" r="38"/><circle cx="714" cy="270" r="32"/>
  </g>
  <g fill="#ead0d9" opacity=".78">
    <circle cx="142" cy="232" r="40"/><circle cx="188" cy="246" r="40"/><circle cx="162" cy="278" r="40"/><circle cx="136" cy="282" r="32"/>
  </g>
  <circle cx="444" cy="164" r="18" fill="#c9a968"/>
  <circle cx="708" cy="238" r="16" fill="#c9a968"/>
  <circle cx="160" cy="260" r="16" fill="#c9a968"/>
  <rect x="222" y="544" width="458" height="50" rx="25" fill="#fffaf4" opacity=".74"/>
</svg>
