<svg xmlns="http://www.w3.org/2000/svg" viewBox="0 0 900 680" role="img" aria-labelledby="title desc">
  <title id="title">Travel memory placeholder</title>
  <desc id="desc">Pastel tickets, suitcase, and little route lines for a trip memory.</desc>
  <defs>
    <linearGradient id="bg" x1="0" x2="1" y1="0" y2="1">
      <stop stop-color="#fffaf4"/>
      <stop offset=".5" stop-color="#e8edf0"/>
      <stop offset="1" stop-color="#f6dbe6"/>
    </linearGradient>
  </defs>
  <rect width="900" height="680" rx="58" fill="url(#bg)"/>
  <rect x="182" y="210" width="264" height="324" rx="42" fill="#c8bfe4" opacity=".7"/>
  <rect x="476" y="162" width="252" height="156" rx="30" fill="#fffaf4" stroke="#c9a968" stroke-opacity=".36" stroke-width="8" transform="rotate(7 602 240)"/>
  <rect x="520" y="226" width="152" height="16" rx="8" fill="#8c9cab" opacity=".42" transform="rotate(7 596 234)"/>
  <rect x="522" y="268" width="112" height="16" rx="8" fill="#d69ab0" opacity=".45" transform="rotate(7 578 276)"/>
  <path d="M246 210v-34c0-38 32-68 72-68s72 30 72 68v34" fill="none" stroke="#8c9cab" stroke-width="16" stroke-linecap="round" opacity=".55"/>
  <path d="M226 402h176" stroke="#fffaf4" stroke-width="14" stroke-linecap="round" opacity=".7"/>
  <path d="M154 126c180 70 300 82 538 12" fill="none" stroke="#c9a968" stroke-width="8" stroke-dasharray="18 22" stroke-linecap="round" opacity=".46"/>
  <circle cx="718" cy="128" r="28" fill="#d69ab0" opacity=".54"/>
  <path d="M672 468c22-34 60-24 58 12-2 44-58 78-58 78s-56-34-58-78c-2-36 36-46 58-12z" fill="#d69ab0" opacity=".42"/>
</svg>
